<?xml version="1.0" encoding="UTF-8"?>
<svg id="Layer_1" xmlns="http://www.w3.org/2000/svg" version="1.1" viewBox="600 300 720 480">
  <!-- Generator: Adobe Illustrator 30.5.1, SVG Export Plug-In . SVG Version: 2.1.4 Build 3)  -->
  <defs>
    <style>
      .st0 {
        fill: none;
      }

      .st1 {
        fill: #061570;
      }

      .st2 {
        fill: #fff;
      }
    </style>
  </defs>
  <g>
    <path class="st2" d="M758.86,447.23v30.12c0,3.03-2.46,5.49-5.49,5.49h-81.59c-3.03,0-5.49,2.46-5.49,5.49v144.45c0,3.03-2.46,5.49-5.49,5.49h-30.56c-3.03,0-5.49-2.46-5.49-5.49v-201.3c0-31.56,11.09-58.43,33.27-80.61,22.18-22.18,49.05-33.27,80.61-33.27h46.32c3.03,0,5.49,2.46,5.49,5.49v30.12c0,3.03-2.46,5.49-5.49,5.49h-46.32c-19.95,0-37,7.08-51.14,21.21-14.15,14.15-21.21,31.34-21.21,51.59v4.79c0,3.03,2.46,5.49,5.49,5.49h81.59c3.03,0,5.49,2.46,5.49,5.49"/>
    <path class="st2" d="M817.28,485.05c9.29-5.83,18.59-11.63,27.88-17.44,3.81-2.38,7.66-4.79,11.49-7.15v-137.38c0-3.03-2.45-5.48-5.48-5.48h-30.57c-3.03,0-5.48,2.45-5.48,5.48v309.69c0,3.03,2.45,5.5,5.48,5.5h30.57c3.03,0,5.48-2.47,5.48-5.5v-148.69c-13.41,4.19-26.75,8.35-40.2,12.56,0-3.63-.04-7.12.04-10.6,0-.33.45-.76.8-.98"/>
    <path class="st2" d="M1041.5,410.49h-30.57c-3.03,0-5.48,2.45-5.48,5.48v175.27c0,3.03-2.45,5.48-5.48,5.48h-4.79c-19.95,0-36.99-7.06-51.13-21.2-14.16-14.14-21.22-31.2-21.22-51.15v-108.4c0-3.03-2.45-5.48-5.48-5.48h-30.57c-3.03,0-5.48,2.45-5.48,5.48v44.58c13.01,8.1,26.05,16.26,39.06,24.36.76.47,1.05.96,1.03,1.89-.05,3.23-.02,6.46-.02,9.84-13.4-4.19-26.68-8.35-40.08-12.52v40.26c0,1.16.02,2.31.05,3.45.78,30.08,11.83,55.81,33.22,77.18,22.18,22.18,49.04,33.27,80.61,33.27h4.79c3.03,0,5.48,2.45,5.48,5.48v4.79c0,19.93-7.08,37.06-21.22,51.35-14.14,14.3-31.18,21.44-51.13,21.44-4.79,0-9.47-.47-13.99-1.4-3.39-.71-6.55,1.91-6.55,5.35v30.66c0,2.74,2.03,5.08,4.76,5.45,5.08.69,10.36,1.03,15.79,1.03,31.26,0,58.07-11.09,80.39-33.27,22.33-22.18,33.49-49.06,33.49-80.61v-232.57c0-3.03-2.45-5.48-5.48-5.48"/>
    <g>
      <path class="st2" d="M1096.18,658.83h-12v-4.27h28.75v4.27h-12v33.79h-4.75v-33.79Z"/>
      <path class="st2" d="M1108.82,678.9v-.05c0-8.73,5.12-14.19,12.69-14.19s12.71,5.43,12.71,14.19v.05c0,8.76-5.12,14.24-12.69,14.24s-12.71-5.51-12.71-14.24ZM1129.53,678.9v-.05c0-6.44-3.17-10.13-8.02-10.13s-7.99,3.72-7.99,10.13v.05c0,6.46,3.19,10.18,8.05,10.18s7.97-3.75,7.97-10.18Z"/>
      <path class="st2" d="M1138.72,682.99v-17.81h4.59v16.99c0,4.46,2.08,6.91,6.3,6.91s7.15-3.09,7.15-7.75v-16.14h4.59v27.43h-4.59v-3.9h-.1c-1.48,2.56-4.27,4.43-8.44,4.43-6.01,0-9.5-3.9-9.5-10.16Z"/>
      <path class="st2" d="M1167.32,665.19h4.59v4.64h.11c.92-3.16,3.3-5.17,6.38-5.17.79,0,1.48.13,1.85.18v4.46c-.37-.13-1.35-.26-2.45-.26-3.56,0-5.88,2.48-5.88,6.65v16.93h-4.59v-27.43Z"/>
      <path class="st2" d="M1182.79,684.94l-.03-.24h4.59l.05.26c.55,2.74,2.59,4.35,6.33,4.35s5.94-1.56,5.94-4.04v-.03c0-1.98-1.03-3.09-4.14-3.85l-4.35-1.05c-5.17-1.24-7.68-3.64-7.68-7.6v-.03c0-4.72,4.14-8.07,10.08-8.07s9.84,3.51,10.18,8.1l.03.34h-4.38l-.03-.18c-.37-2.66-2.4-4.43-5.8-4.43s-5.38,1.61-5.38,4.04v.03c0,1.87,1.24,3.17,4.27,3.9l4.35,1.05c5.54,1.35,7.55,3.54,7.55,7.44v.03c0,4.8-4.54,8.18-10.66,8.18-6.46,0-10.37-3.3-10.92-8.2Z"/>
      <path class="st2" d="M1219.5,681.95v-.03c0-4.72,2.61-8.31,7.89-11.11l1.47-.78c-3.45-3.86-4.92-6.33-4.95-9.22v-.03c0-5.11,4.33-8.92,10.11-8.92s10.14,3.7,10.14,8.89v.03c0,3.95-2.28,6.83-8.59,10.28l9.86,10.56c1.31-2.83,1.97-6.36,1.97-10.5v-1.19h4.61v1.22c0,5.56-1.19,10.25-3.39,13.86l6.95,7.45v.17h-6.11l-3.67-4.03c-3.22,3.06-7.58,4.7-12.86,4.7-7.92,0-13.45-4.67-13.45-11.34ZM1233.39,689.12c4.03,0,7.2-1.31,9.5-3.7l-11.28-12.39-1.31.72c-4.22,2.42-5.86,4.78-5.86,7.83v.03c0,4.47,3.61,7.5,8.95,7.5ZM1232.98,668.23c4.92-2.61,6.53-4.56,6.53-7.25v-.03c0-3.06-2.22-5.17-5.45-5.17s-5.42,2.17-5.42,5.22v.03c0,2.19,1.36,3.97,4.33,7.2Z"/>
    </g>
    <g>
      <path class="st2" d="M1097.2,702.91h-13.02v-4.64h31.18v4.64h-13.02v36.65h-5.15v-36.65Z"/>
      <path class="st2" d="M1120.04,709.81h4.98v5.03h.12c1-3.43,3.58-5.61,6.92-5.61.86,0,1.6.14,2,.2v4.84c-.4-.14-1.46-.29-2.66-.29-3.86,0-6.38,2.69-6.38,7.21v18.37h-4.98v-29.75Z"/>
      <path class="st2" d="M1136.37,731.15v-.06c0-5.06,3.95-8.24,10.79-8.64l8.53-.49v-2.49c0-3.63-2.38-5.84-6.52-5.84-3.83,0-6.24,1.83-6.81,4.49l-.06.26h-4.81l.03-.32c.43-4.89,4.69-8.84,11.7-8.84s11.44,3.81,11.44,9.76v20.57h-4.98v-4.84h-.12c-1.74,3.26-5.32,5.41-9.3,5.41-5.92,0-9.9-3.58-9.9-8.98ZM1147.39,735.82c4.69,0,8.3-3.23,8.3-7.55v-2.43l-7.95.49c-3.98.23-6.27,2-6.27,4.78v.06c0,2.86,2.35,4.66,5.92,4.66Z"/>
      <path class="st2" d="M1164.42,709.81h5.24l8.21,24.46h.12l8.24-24.46h5.18l-10.93,29.75h-5.09l-10.96-29.75Z"/>
      <path class="st2" d="M1193.02,724.8v-.03c0-9.21,5.26-15.53,13.39-15.53s13.07,6.04,13.07,14.96v1.83h-21.43c.12,6.12,3.49,9.7,8.78,9.7,3.78,0,6.44-1.89,7.3-4.43l.09-.26h4.89l-.06.29c-.97,4.92-5.84,8.81-12.33,8.81-8.55,0-13.7-5.98-13.7-15.34ZM1198.14,722.14h16.28c-.49-5.78-3.69-8.5-8.04-8.5s-7.69,2.95-8.24,8.5Z"/>
      <path class="st2" d="M1224.76,698.28h4.98v41.28h-4.98v-41.28Z"/>
      <path class="st2" d="M1235.18,731.24l-.03-.26h4.98l.06.29c.6,2.98,2.8,4.72,6.87,4.72s6.44-1.69,6.44-4.38v-.03c0-2.15-1.12-3.35-4.49-4.18l-4.72-1.14c-5.61-1.35-8.33-3.95-8.33-8.24v-.03c0-5.12,4.49-8.75,10.93-8.75s10.67,3.81,11.04,8.78l.03.37h-4.75l-.03-.2c-.4-2.89-2.6-4.81-6.29-4.81s-5.84,1.75-5.84,4.38v.03c0,2.03,1.35,3.43,4.64,4.23l4.72,1.14c6.01,1.46,8.18,3.83,8.18,8.07v.03c0,5.21-4.92,8.87-11.56,8.87-7.01,0-11.24-3.58-11.84-8.9Z"/>
    </g>
    <path class="st2" d="M1202.82,508.25c-.02,11.85-9.66,21.47-21.51,21.45-11.85-.02-21.47-9.66-21.45-21.51.04-11.87,9.66-21.47,21.51-21.45,11.87.02,21.47,9.64,21.45,21.51"/>
    <path class="st2" d="M1261.74,443.54c-22.34-22.33-49.21-33.49-80.63-33.49s-58.21,11.16-80.39,33.49c-22.18,22.33-33.27,49.21-33.27,80.61s11.09,58.23,33.27,80.39c22.18,22.2,48.97,33.27,80.39,33.27s58.28-11.07,80.63-33.27c22.33-22.16,33.49-48.97,33.49-80.39s-11.16-58.28-33.49-80.61M1177.66,606.88c-.85-1.36-1.67-2.74-2.52-4.1-1.47-2.41-2.94-4.81-4.41-7.22-12.07-19.77-24.16-39.55-36.21-59.32-3.65-5.95-5.99-12.4-7.08-19.28-3.81-23.96,8.31-47.28,30.09-57.92,5.37-2.61,11.04-4.32,16.99-5.01,2.25-.27,4.54-.38,6.82-.56,22.23.11,42.24,13.61,50.62,34.27,2,4.92,3.27,10.02,3.74,15.3,1.05,11.94-1.42,23.09-7.64,33.36-11.94,19.73-23.92,39.44-35.88,59.15-2.23,3.65-4.45,7.31-6.66,10.96-.78,1.29-1.8,2.18-3.3,2.41-1.94.29-3.49-.38-4.56-2.05"/>
  </g>
</svg>
