<svg xmlns="http://www.w3.org/2000/svg" width="24" height="24" viewBox="0 0 24 24" fill="none" stroke="currentColor" stroke-width="1.8" stroke-linecap="round" stroke-linejoin="round" aria-labelledby="title">
  <title>WhatsApp</title>
<path d="M20 11.8a8 8 0 0 1-11.8 7l-4.2 1.2 1.3-4.1A8 8 0 1 1 20 11.8Z"/>
  <path d="M9.5 8.7c.2-.5.4-.5.7-.5h.6c.2 0 .4 0 .6.5.2.5.8 1.8.9 1.9.1.2.1.4 0 .6-.1.2-.2.4-.4.5-.2.2-.4.4-.5.5-.2.2-.3.4-.1.7.2.4.9 1.4 1.9 2.2 1.3 1 2.3 1.3 2.6 1.5.3.1.5.1.7-.1.2-.2.8-.9 1-1.2.2-.3.4-.2.7-.1.3.1 1.7.8 2 1 .3.1.5.2.5.4 0 .2 0 1-.7 1.8-.7.8-1.6.8-2.2.6-.6-.2-2.1-.8-3.6-2.2-1.8-1.5-2.9-3.3-3.2-3.9-.3-.6-.3-1.6.1-2.2.4-.6.8-.8 1-.9Z"/>

</svg>
